<svg width="30" height="30" viewBox="0 0 30 30" fill="none" xmlns="http://www.w3.org/2000/svg">
<path d="M4.25 7.5C4.25 6.63805 4.59241 5.8114 5.2019 5.2019C5.8114 4.59241 6.63805 4.25 7.5 4.25H22.5C23.362 4.25 24.1886 4.59241 24.7981 5.2019C25.4076 5.8114 25.75 6.63805 25.75 7.5V22.5C25.75 23.362 25.4076 24.1886 24.7981 24.7981C24.1886 25.4076 23.362 25.75 22.5 25.75H7.5C6.63805 25.75 5.8114 25.4076 5.2019 24.7981C4.59241 24.1886 4.25 23.362 4.25 22.5V7.5ZM16.75 10C16.75 9.53587 16.5656 9.09075 16.2374 8.76256C15.9092 8.43437 15.4641 8.25 15 8.25C14.5359 8.25 14.0908 8.43437 13.7626 8.76256C13.4344 9.09075 13.25 9.53587 13.25 10V20C13.25 20.4641 13.4344 20.9092 13.7626 21.2374C14.0908 21.5656 14.5359 21.75 15 21.75C15.4641 21.75 15.9092 21.5656 16.2374 21.2374C16.5656 20.9092 16.75 20.4641 16.75 20V10ZM11.75 13.75C11.75 13.2859 11.5656 12.8408 11.2374 12.5126C10.9092 12.1844 10.4641 12 10 12C9.53587 12 9.09075 12.1844 8.76256 12.5126C8.43437 12.8408 8.25 13.2859 8.25 13.75V20C8.25 20.4641 8.43437 20.9092 8.76256 21.2374C9.09075 21.5656 9.53587 21.75 10 21.75C10.4641 21.75 10.9092 21.5656 11.2374 21.2374C11.5656 20.9092 11.75 20.4641 11.75 20V13.75ZM21.75 17.5C21.75 17.0359 21.5656 16.5908 21.2374 16.2626C20.9092 15.9344 20.4641 15.75 20 15.75C19.5359 15.75 19.0908 15.9344 18.7626 16.2626C18.4344 16.5908 18.25 17.0359 18.25 17.5V20C18.25 20.4641 18.4344 20.9092 18.7626 21.2374C19.0908 21.5656 19.5359 21.75 20 21.75C20.4641 21.75 20.9092 21.5656 21.2374 21.2374C21.5656 20.9092 21.75 20.4641 21.75 20V17.5Z" stroke="white"/>
</svg>
