<svg width="55" height="37" viewBox="0 0 55 37" fill="none" xmlns="http://www.w3.org/2000/svg">
<path d="M54.3377 10.9405L29.9991 0.509386C29.2096 0.170829 28.3687 0 27.4999 0C26.6311 0 25.7904 0.170829 25.0007 0.509386L0.662038 10.9405C0.259745 11.1137 0 11.491 0 11.9034C0 12.3158 0.259745 12.6931 0.662038 12.8663L25.0007 23.2974C25.7902 23.636 26.6311 23.8076 27.4999 23.8076C28.3687 23.8076 29.2096 23.636 29.9993 23.2974L49.2075 15.0654V23.3549C48.4452 23.4349 47.8508 24.039 47.8508 24.769C47.8508 25.405 48.3028 25.9556 48.9471 26.131L47.6482 34.1114H53.629L52.3302 26.131C52.9743 25.9556 53.4264 25.405 53.4264 24.769C53.4264 24.039 52.8319 23.4349 52.0696 23.3549V13.8385L54.338 12.8663C54.7401 12.6931 55 12.3158 55 11.9034C55 11.491 54.74 11.1137 54.3377 10.9405Z" fill="#CFDEF3"/>
<path d="M27.4999 27.5847C26.2918 27.5847 25.1213 27.3455 24.0209 26.8742L12.1164 21.7716V31.9371C12.1164 34.1689 19.3594 37.0001 27.4999 37.0001C35.6405 37.0001 42.8836 34.1688 42.8836 31.9371V21.7716L30.9784 26.8742C29.8787 27.3455 28.7084 27.5847 27.4999 27.5847Z" fill="#A7C4E9"/>
</svg>
