<svg width="46" height="47" viewBox="0 0 46 47" fill="none" xmlns="http://www.w3.org/2000/svg">
<path d="M19.0972 29.1049C19.6947 29.1918 20.3038 29.1535 20.8857 28.9924C21.4676 28.8313 22.0097 28.5509 22.4774 28.1691C22.6295 28.0483 22.818 27.9825 23.0122 27.9825C23.2064 27.9825 23.3949 28.0483 23.5469 28.1691C24.0146 28.5509 24.5567 28.8313 25.1386 28.9924C25.7205 29.1535 26.3296 29.1918 26.9271 29.1049C31.1094 29.1049 34.566 21.6379 34.566 16.9399C34.566 12.242 31.3958 8.21251 27.4045 8.21251C26.0183 8.11065 24.6337 8.43018 23.4323 9.12918C23.0122 9.37744 23.0122 9.49202 21.8663 9.01459C21.0686 8.62848 20.2197 8.35839 19.3455 8.21251C19.0841 8.17788 18.8183 8.19777 18.565 8.27092C18.3116 8.34407 18.0761 8.4689 17.8734 8.63754C17.6707 8.80618 17.5051 9.01499 17.387 9.25079C17.269 9.4866 17.2011 9.74429 17.1875 10.0076C16.882 14.8201 14.4566 15.8514 13.0434 15.9851C12.5746 16.0646 12.1524 16.3162 11.8592 16.6905C11.5661 17.0649 11.4231 17.5352 11.4583 18.0094C11.783 22.4208 15.0486 29.1049 19.0972 29.1049Z" fill="#CFDEF3"/>
<path d="M22.8979 7.2838C23.2381 7.62404 23.9044 7.61031 24.7503 7.24564C25.5961 6.88096 26.5522 6.19522 27.4081 5.33926C28.2641 4.4833 28.9498 3.52724 29.3145 2.6814C29.6792 1.83556 29.6929 1.16923 29.3527 0.828998C29.1842 0.660527 28.9339 0.577185 28.6161 0.583732C28.2982 0.590278 27.9191 0.686584 27.5003 0.867151C27.0815 1.04772 26.6312 1.30901 26.1751 1.63611C25.7191 1.96321 25.2662 2.3497 24.8424 2.77353C24.4186 3.19736 24.0321 3.65023 23.705 4.10626C23.3779 4.5623 23.1166 5.01258 22.936 5.4314C22.7555 5.85022 22.6592 6.22937 22.6526 6.54721C22.6461 6.86504 22.7294 7.11534 22.8979 7.2838Z" fill="#CFDEF3"/>
<path d="M38.1944 31.1292H1.90972C1.40323 31.1292 0.917487 31.3304 0.559345 31.6885C0.201202 32.0466 0 32.5324 0 33.0389C0 33.5454 0.201202 34.0311 0.559345 34.3893C0.917487 34.7474 1.40323 34.9486 1.90972 34.9486H13.3681C14.381 34.9486 15.3525 35.351 16.0688 36.0673C16.7851 36.7836 17.1875 37.7551 17.1875 38.768C17.1875 39.781 16.7851 40.7525 16.0688 41.4688C15.3525 42.1851 14.381 42.5875 13.3681 42.5875H1.90972C1.40323 42.5875 0.917487 42.7887 0.559345 43.1468C0.201202 43.505 0 43.9907 0 44.4972C0 45.0037 0.201202 45.4894 0.559345 45.8476C0.917487 46.2057 1.40323 46.4069 1.90972 46.4069H38.1944C40.2204 46.4069 42.1634 45.6021 43.596 44.1695C45.0285 42.737 45.8333 40.794 45.8333 38.768C45.8333 36.7421 45.0285 34.7991 43.596 33.3665C42.1634 31.934 40.2204 31.1292 38.1944 31.1292Z" fill="#A7C4E9"/>
</svg>
