<svg width="45" height="45" viewBox="0 0 45 45" fill="none" xmlns="http://www.w3.org/2000/svg">
<g clip-path="url(#clip0_20_183)">
<path d="M2.775 13.125C3.02364 13.125 3.2621 13.0262 3.43791 12.8504C3.61373 12.6746 3.7125 12.4361 3.7125 12.1875V7.70625L13.7062 11.25C13.9122 11.3245 14.1378 11.3245 14.3437 11.25L25.5937 7.275C25.7819 7.21584 25.9467 7.09882 26.0645 6.94059C26.1823 6.78237 26.2472 6.59101 26.25 6.39375C26.2541 6.20271 26.1984 6.01515 26.0909 5.8572C25.9834 5.69925 25.8292 5.57876 25.65 5.5125L14.3625 1.03125C14.1372 0.956867 13.894 0.956867 13.6687 1.03125L2.41875 5.5125H2.25V5.7H1.875V12.2625C1.89323 12.4916 1.99497 12.706 2.16088 12.865C2.3268 13.024 2.54535 13.1165 2.775 13.125Z" fill="#CFDEF3"/>
<path d="M20.1375 11.4L14.025 13.575L7.9125 11.4C7.76886 11.3503 7.6153 11.3363 7.46505 11.3592C7.3148 11.382 7.17235 11.4411 7.05 11.5312C6.92638 11.6173 6.82581 11.7324 6.75715 11.8665C6.68849 12.0005 6.65384 12.1494 6.65625 12.3V16.3125C6.65633 16.5052 6.71577 16.6931 6.82648 16.8508C6.9372 17.0085 7.0938 17.1282 7.275 17.1937L12.1125 18.9C13.3257 19.3289 14.6493 19.3289 15.8625 18.9L20.6812 17.1937C20.8645 17.129 21.0236 17.01 21.1375 16.8526C21.2514 16.6952 21.3146 16.5068 21.3187 16.3125V12.3C21.3212 12.1494 21.2865 12.0005 21.2178 11.8665C21.1492 11.7324 21.0486 11.6173 20.925 11.5312C20.8109 11.4539 20.6815 11.4022 20.5456 11.3795C20.4097 11.3569 20.2705 11.3638 20.1375 11.4Z" fill="#CFDEF3"/>
<path d="M44.7937 32.7374L43.0875 28.9875V19.9312C43.0875 19.0692 42.7463 18.2422 42.1385 17.6309C41.5308 17.0196 40.7057 16.6737 39.8437 16.6687H27.5812C26.7257 16.6835 25.9103 17.0337 25.3106 17.6439C24.7108 18.2542 24.3748 19.0756 24.375 19.9312V28.8562C24.3649 28.9434 24.3649 29.0315 24.375 29.1187L22.725 32.7374C22.569 33.088 22.5029 33.472 22.5328 33.8546C22.5627 34.2371 22.6876 34.6062 22.8961 34.9283C23.1046 35.2504 23.3903 35.5154 23.7271 35.6993C24.0639 35.8831 24.4412 35.98 24.825 35.9812H42.7125C43.0962 35.98 43.4736 35.8831 43.8104 35.6993C44.1472 35.5154 44.4328 35.2504 44.6413 34.9283C44.8499 34.6062 44.9747 34.2371 45.0046 33.8546C45.0345 33.472 44.9685 33.088 44.8125 32.7374H44.7937ZM28.125 20.4187H39.375V26.9812H28.125V20.4187Z" fill="#A7C4E9"/>
<path d="M22.2937 41.25L20.625 37.5V37.3875C20.625 36.8902 20.4274 36.4133 20.0758 36.0617C19.7242 35.71 19.2473 35.5125 18.75 35.5125H5.62498V28.95H16.875V30.3563C16.875 30.8535 17.0725 31.3304 17.4242 31.6821C17.7758 32.0337 18.2527 32.2313 18.75 32.2313C19.2473 32.2313 19.7242 32.0337 20.0758 31.6821C20.4274 31.3304 20.625 30.8535 20.625 30.3563V28.4812C20.625 27.6192 20.2838 26.7922 19.6761 26.1809C19.0683 25.5696 18.2432 25.2237 17.3812 25.2188H5.08123C4.22899 25.2334 3.41633 25.5811 2.81712 26.1873C2.21792 26.7935 1.87975 27.6101 1.87498 28.4625V37.3875C1.86491 37.4747 1.86491 37.5628 1.87498 37.65L0.206233 41.25C0.0502451 41.6006 -0.0157989 41.9846 0.014085 42.3671C0.0439689 42.7497 0.168836 43.1187 0.377372 43.4408C0.585908 43.763 0.871522 44.028 1.20833 44.2118C1.54515 44.3957 1.92251 44.4926 2.30623 44.4937H20.1937C20.5775 44.4926 20.9548 44.3957 21.2916 44.2118C21.6284 44.028 21.9141 43.763 22.1226 43.4408C22.3311 43.1187 22.456 42.7497 22.4859 42.3671C22.5158 41.9846 22.4497 41.6006 22.2937 41.25Z" fill="#CFDEF3"/>
</g>
<defs>
<clipPath id="clip0_20_183">
<rect width="45" height="45" fill="white"/>
</clipPath>
</defs>
</svg>
