<svg width="29" height="29" viewBox="0 0 29 29" fill="none" xmlns="http://www.w3.org/2000/svg">
<path d="M16.6296 15.9362L16.6296 15.9362C17.2402 16.0183 17.8466 16.2063 18.341 16.7008C18.8355 17.1952 19.0234 17.8017 19.1055 18.4122C19.1769 18.9437 19.181 19.5951 19.1812 20.3327V20.3328V20.4821V25.6771V25.8271H19.0312H17.2187H11.7813H9.96879H9.81879V25.6771V20.4821V20.4729C9.81874 19.6769 9.81869 18.9765 9.89456 18.4122C9.97665 17.8017 10.1646 17.1952 10.659 16.7008C10.659 16.7008 10.659 16.7008 10.659 16.7008M16.6296 15.9362L12.3905 16.0849C11.7964 16.1647 11.227 16.3449 10.7651 16.8068L10.659 16.7008M16.6296 15.9362C16.0653 15.8604 15.365 15.8604 14.569 15.8604H14.5597H14.4404H14.4311C13.6352 15.8604 12.9347 15.8604 12.3705 15.9362L12.3705 15.9362C11.7599 16.0183 11.1535 16.2063 10.659 16.7008M16.6296 15.9362L10.659 16.7008M25.1666 13.1268L24.9229 12.9319V13.244V25.6771V25.8271H25.0729H26.5833C27.001 25.8271 27.3396 26.1657 27.3396 26.5834C27.3396 27.0011 27.001 27.3396 26.5833 27.3396H2.4167C1.99902 27.3396 1.66045 27.0011 1.66045 26.5834C1.66045 26.1657 1.99903 25.8271 2.4167 25.8271H3.92712H4.07712V25.6771V13.244V12.9319L3.83341 13.1268L2.88912 13.8823L2.88912 13.8823C2.56299 14.1432 2.0871 14.0903 1.82618 13.7642C1.56524 13.438 1.61815 12.9621 1.94426 12.7012L1.94428 12.7012L11.7631 4.84616C13.3632 3.56606 15.6369 3.56606 17.2369 4.84615L17.3306 4.72903L17.2369 4.84616L27.0557 12.7012L27.0558 12.7012C27.3819 12.9621 27.4348 13.438 27.1739 13.7642C26.913 14.0903 26.4371 14.1432 26.1109 13.8823L25.1666 13.1268ZM14.5 8.00632C12.5819 8.00632 11.0271 9.5612 11.0271 11.4792C11.0271 13.3972 12.5819 14.9521 14.5 14.9521C16.4181 14.9521 17.9729 13.3972 17.9729 11.4792C17.9729 9.5612 16.4181 8.00632 14.5 8.00632Z" fill="#7DA5DD" stroke="#A7C4E9" stroke-width="0.3"/>
<g opacity="0.5">
<path fill-rule="evenodd" clip-rule="evenodd" d="M12.9896 11.4792C12.9896 10.645 13.6658 9.96875 14.5 9.96875C15.3342 9.96875 16.0104 10.645 16.0104 11.4792C16.0104 12.3134 15.3342 12.9896 14.5 12.9896C13.6658 12.9896 12.9896 12.3134 12.9896 11.4792Z" fill="#F2F6FC"/>
<path fill-rule="evenodd" clip-rule="evenodd" d="M12.9896 11.4792C12.9896 10.645 13.6658 9.96875 14.5 9.96875C15.3342 9.96875 16.0104 10.645 16.0104 11.4792C16.0104 12.3134 15.3342 12.9896 14.5 12.9896C13.6658 12.9896 12.9896 12.3134 12.9896 11.4792Z" fill="#1C274C"/>
</g>
<path opacity="0.5" d="M14.5597 16.0104C15.363 16.0104 16.0552 16.0103 16.6095 16.0848C17.2036 16.1647 17.773 16.3448 18.235 16.8067C18.6968 17.2686 18.8769 17.838 18.9568 18.4321C19.0267 18.9517 19.031 19.5926 19.0313 20.3326V25.677H9.96875V20.4819C9.96872 19.6786 9.96867 18.9864 10.0432 18.4321C10.1231 17.838 10.3032 17.2686 10.7651 16.8067C11.2269 16.3448 11.7964 16.1647 12.3905 16.0848C12.9448 16.0103 13.637 16.0104 14.4403 16.0104H14.5597Z" fill="#4B6EC5"/>
<path opacity="0.5" d="M19.3333 3.625H22.3542C22.6878 3.625 22.9583 3.8955 22.9583 4.22917V9.23112L18.7292 5.84779V4.22917C18.7292 3.8955 18.9997 3.625 19.3333 3.625Z" fill="#4B6EC5"/>
</svg>
