<svg width="48" height="48" viewBox="0 0 48 48" fill="none" xmlns="http://www.w3.org/2000/svg">
<path d="M10.5 16C10.5 14.5413 11.0795 13.1424 12.1109 12.1109C13.1424 11.0795 14.5413 10.5 16 10.5C17.4587 10.5 18.8576 11.0795 19.8891 12.1109C20.9205 13.1424 21.5 14.5413 21.5 16C21.5 17.4587 20.9205 18.8576 19.8891 19.8891C18.8576 20.9205 17.4587 21.5 16 21.5C14.5413 21.5 13.1424 20.9205 12.1109 19.8891C11.0795 18.8576 10.5 17.4587 10.5 16ZM16 8C13.8783 8 11.8434 8.84285 10.3431 10.3431C8.84285 11.8434 8 13.8783 8 16C8 18.1217 8.84285 20.1566 10.3431 21.6569C11.8434 23.1571 13.8783 24 16 24C18.1217 24 20.1566 23.1571 21.6569 21.6569C23.1571 20.1566 24 18.1217 24 16C24 13.8783 23.1571 11.8434 21.6569 10.3431C20.1566 8.84285 18.1217 8 16 8ZM30.5 18C30.5 17.0717 30.8687 16.1815 31.5251 15.5251C32.1815 14.8687 33.0717 14.5 34 14.5C34.9283 14.5 35.8185 14.8687 36.4749 15.5251C37.1312 16.1815 37.5 17.0717 37.5 18C37.5 18.9283 37.1312 19.8185 36.4749 20.4749C35.8185 21.1313 34.9283 21.5 34 21.5C33.0717 21.5 32.1815 21.1313 31.5251 20.4749C30.8687 19.8185 30.5 18.9283 30.5 18ZM34 12C32.4087 12 30.8826 12.6321 29.7574 13.7574C28.6321 14.8826 28 16.4087 28 18C28 19.5913 28.6321 21.1174 29.7574 22.2426C30.8826 23.3679 32.4087 24 34 24C35.5913 24 37.1174 23.3679 38.2426 22.2426C39.3679 21.1174 40 19.5913 40 18C40 16.4087 39.3679 14.8826 38.2426 13.7574C37.1174 12.6321 35.5913 12 34 12ZM34 39C31.824 39 30.078 38.648 28.684 38.078L28.87 37.838C29.364 37.187 29.743 36.535 30.033 35.917C31.053 36.272 32.349 36.5 33.999 36.5C38.275 36.5 40.172 34.967 41.062 33.669C41.5689 32.9232 41.8863 32.0651 41.987 31.169C41.9927 31.1105 41.9967 31.0518 41.999 30.993V30.75C41.999 30.06 41.439 29.5 40.749 29.5H30.863C30.6576 28.5758 30.2264 27.7169 29.608 27H40.75C41.7446 27 42.6984 27.3951 43.4016 28.0983C44.1049 28.8016 44.5 29.7554 44.5 30.75V31.047L44.497 31.133C44.493 31.203 44.487 31.297 44.477 31.412C44.3352 32.7278 43.8712 33.9883 43.126 35.082C41.701 37.158 38.973 39 33.998 39M6.75 27C5.75544 27 4.80161 27.3951 4.09835 28.0983C3.39509 28.8016 3 29.7554 3 30.75V32.053L3.004 32.15C3.008 32.23 3.016 32.336 3.03 32.468C3.059 32.73 3.114 33.09 3.222 33.518C3.50859 34.6453 4.01868 35.7036 4.722 36.63C6.479 38.946 9.826 41 16 41C22.175 41 25.522 38.946 27.277 36.63C27.9808 35.7033 28.4912 34.6447 28.778 33.517C28.886 33.09 28.941 32.73 28.97 32.467C28.9851 32.3294 28.9951 32.1913 29 32.053V30.75C29 30.2575 28.903 29.7699 28.7145 29.3149C28.5261 28.86 28.2499 28.4466 27.9017 28.0983C27.5534 27.7501 27.14 27.4739 26.6851 27.2855C26.2301 27.097 25.7425 27 25.25 27H6.75ZM5.501 32.024L5.5 31.992V30.75C5.5 30.06 6.06 29.5 6.75 29.5H25.25C25.94 29.5 26.5 30.06 26.5 30.75V31.992L26.499 32.024C26.4763 32.3209 26.4282 32.6153 26.355 32.904C26.1503 33.7069 25.7864 34.4604 25.285 35.12C24.103 36.68 21.575 38.5 16 38.5C10.425 38.5 7.897 36.68 6.715 35.12C6.21365 34.4607 5.84979 33.7075 5.645 32.905C5.57184 32.616 5.52366 32.3212 5.501 32.024Z" fill="#5F88D2"/>
</svg>
