<svg width="30" height="30" viewBox="0 0 30 30" fill="none" xmlns="http://www.w3.org/2000/svg">
<path d="M15.7 15.25C15.7 14.7823 15.5366 14.369 15.2076 14.0412C14.8796 13.7144 14.4674 13.5511 14.0011 13.55H14V16.5V16.95C14.4677 16.95 14.8811 16.7866 15.2094 16.4582C15.5377 16.13 15.7009 15.7171 15.7 15.25ZM15.7 15.25H15.25L15.7 15.2489C15.7 15.2493 15.7 15.2496 15.7 15.25ZM8.55 26.95V27.0323L9.03769 26.95H26.5H26.95V26.5V24V23.55H26.5H24.45V6.5C24.45 5.67834 24.1672 4.96828 23.5994 4.40055C23.0317 3.83283 22.3217 3.55 21.5 3.55H9.03658L8.55 3.47038V3.58128C7.93229 3.66932 7.38478 3.94288 6.92038 4.39702C6.3406 4.96398 6.05 5.67513 6.05 6.5V23.55H4H3.55V24V26.5V26.95H4H8.55ZM9.45 23.4688V7.02953L15.4274 8.00661L15.4274 8.0067L15.4364 8.00798C15.6022 8.03166 15.738 8.10905 15.8588 8.27C15.9878 8.44211 16.05 8.62862 16.05 8.84375V22.3688L9.45 23.4688ZM19.45 8.8125C19.45 8.13959 19.3075 7.51687 19.0234 6.95H21.05V23.55H19.45V8.8125Z" stroke="white" stroke-width="0.9"/>
</svg>
