<svg width="26" height="26" viewBox="0 0 26 26" fill="none" xmlns="http://www.w3.org/2000/svg">
<path d="M24.917 19.5L22.317 22.9667C22.1274 23.2485 21.8682 23.4764 21.5644 23.6283C21.2607 23.7801 20.9228 23.8508 20.5837 23.8334H13.0003C12.7133 23.8325 12.4382 23.7181 12.2352 23.5151C12.0323 23.3121 11.9178 23.0371 11.917 22.75V16.25C11.9178 15.963 12.0323 15.6879 12.2352 15.485C12.4382 15.282 12.7133 15.1676 13.0003 15.1667H20.5837C20.9187 15.1737 21.2481 15.2551 21.5478 15.405C21.8476 15.5549 22.1103 15.7695 22.317 16.0334L24.917 19.5ZM22.7503 6.50004H3.25033V2.16671H22.7503V6.50004ZM2.16699 1.08337V7.58337H23.8337V1.08337" fill="white"/>
<path d="M4.33366 3.25H6.50033V5.41667H4.33366V3.25ZM3.25033 15.1667V10.8333H22.7503V14.4408L23.8337 15.8892V9.75H2.16699V16.25H9.75033V15.1667H3.25033Z" fill="white"/>
<path d="M4.33301 11.9166H6.49967V14.0833H4.33301V11.9166ZM4.33301 20.5833H6.49967V22.75H4.33301V20.5833Z" fill="white"/>
<path d="M3.25033 23.8333V19.5H9.75033V18.4166H2.16699V24.9166H9.75033V23.8333H3.25033Z" fill="white"/>
</svg>
