<svg width="30" height="30" viewBox="0 0 30 30" fill="none" xmlns="http://www.w3.org/2000/svg">
<path d="M12.5 9.375C12.5 9.20924 12.5658 9.05027 12.6831 8.93306C12.8003 8.81585 12.9592 8.75 13.125 8.75H18.125C18.2908 8.75 18.4497 8.81585 18.5669 8.93306C18.6842 9.05027 18.75 9.20924 18.75 9.375C18.75 9.54076 18.6842 9.69973 18.5669 9.81694C18.4497 9.93415 18.2908 10 18.125 10H13.125C12.9592 10 12.8003 9.93415 12.6831 9.81694C12.5658 9.69973 12.5 9.54076 12.5 9.375ZM13.125 11.25C12.9592 11.25 12.8003 11.3158 12.6831 11.4331C12.5658 11.5503 12.5 11.7092 12.5 11.875C12.5 12.0408 12.5658 12.1997 12.6831 12.3169C12.8003 12.4342 12.9592 12.5 13.125 12.5H18.125C18.2908 12.5 18.4497 12.4342 18.5669 12.3169C18.6842 12.1997 18.75 12.0408 18.75 11.875C18.75 11.7092 18.6842 11.5503 18.5669 11.4331C18.4497 11.3158 18.2908 11.25 18.125 11.25H13.125ZM12.5 17.5C12.5 17.3342 12.5658 17.1753 12.6831 17.0581C12.8003 16.9408 12.9592 16.875 13.125 16.875H18.125C18.2908 16.875 18.4497 16.9408 18.5669 17.0581C18.6842 17.1753 18.75 17.3342 18.75 17.5C18.75 17.6658 18.6842 17.8247 18.5669 17.9419C18.4497 18.0592 18.2908 18.125 18.125 18.125H13.125C12.9592 18.125 12.8003 18.0592 12.6831 17.9419C12.5658 17.8247 12.5 17.6658 12.5 17.5ZM13.125 19.375C12.9592 19.375 12.8003 19.4408 12.6831 19.5581C12.5658 19.6753 12.5 19.8342 12.5 20C12.5 20.1658 12.5658 20.3247 12.6831 20.4419C12.8003 20.5592 12.9592 20.625 13.125 20.625H18.125C18.2908 20.625 18.4497 20.5592 18.5669 20.4419C18.6842 20.3247 18.75 20.1658 18.75 20C18.75 19.8342 18.6842 19.6753 18.5669 19.5581C18.4497 19.4408 18.2908 19.375 18.125 19.375H13.125Z" fill="white"/>
<path fill-rule="evenodd" clip-rule="evenodd" d="M6.25 16.875C6.25 16.7092 6.31585 16.5503 6.43306 16.4331C6.55027 16.3158 6.70924 16.25 6.875 16.25H10C10.1658 16.25 10.3247 16.3158 10.4419 16.4331C10.5592 16.5503 10.625 16.7092 10.625 16.875V20C10.625 20.1658 10.5592 20.3247 10.4419 20.4419C10.3247 20.5592 10.1658 20.625 10 20.625H6.875C6.70924 20.625 6.55027 20.5592 6.43306 20.4419C6.31585 20.3247 6.25 20.1658 6.25 20V16.875ZM7.5 17.5V19.375H9.375V17.5H7.5Z" fill="white"/>
<path d="M11.067 9.81688C11.1809 9.69901 11.2439 9.54113 11.2424 9.37726C11.241 9.21339 11.1753 9.05663 11.0594 8.94075C10.9435 8.82487 10.7868 8.75914 10.6229 8.75771C10.459 8.75629 10.3011 8.81929 10.1833 8.93314L8.12513 10.9913L7.31701 10.1831C7.19913 10.0693 7.04125 10.0063 6.87738 10.0077C6.71351 10.0091 6.55675 10.0749 6.44087 10.1907C6.32499 10.3066 6.25926 10.4634 6.25784 10.6273C6.25641 10.7911 6.31941 10.949 6.43326 11.0669L8.12513 12.7588L11.067 9.81688Z" fill="white"/>
<path fill-rule="evenodd" clip-rule="evenodd" d="M6.25 3.75C5.58696 3.75 4.95107 4.01339 4.48223 4.48223C4.01339 4.95107 3.75 5.58696 3.75 6.25V23.75C3.75 24.413 4.01339 25.0489 4.48223 25.5178C4.95107 25.9866 5.58696 26.25 6.25 26.25H18.75C19.413 26.25 20.0489 25.9866 20.5178 25.5178C20.9866 25.0489 21.25 24.413 21.25 23.75V6.25C21.25 5.58696 20.9866 4.95107 20.5178 4.48223C20.0489 4.01339 19.413 3.75 18.75 3.75H6.25ZM5 6.25C5 5.91848 5.1317 5.60054 5.36612 5.36612C5.60054 5.1317 5.91848 5 6.25 5H18.75C19.0815 5 19.3995 5.1317 19.6339 5.36612C19.8683 5.60054 20 5.91848 20 6.25V23.75C20 24.0815 19.8683 24.3995 19.6339 24.6339C19.3995 24.8683 19.0815 25 18.75 25H6.25C5.91848 25 5.60054 24.8683 5.36612 24.6339C5.1317 24.3995 5 24.0815 5 23.75V6.25ZM22.5 10C22.5 9.50272 22.6975 9.02581 23.0492 8.67417C23.4008 8.32254 23.8777 8.125 24.375 8.125C24.8723 8.125 25.3492 8.32254 25.7008 8.67417C26.0525 9.02581 26.25 9.50272 26.25 10V22.6894L24.375 25.5019L22.5 22.6894V10ZM24.375 9.375C24.2092 9.375 24.0503 9.44085 23.9331 9.55806C23.8158 9.67527 23.75 9.83424 23.75 10V11.25H25V10C25 9.83424 24.9342 9.67527 24.8169 9.55806C24.6997 9.44085 24.5408 9.375 24.375 9.375ZM24.375 23.2481L23.75 22.3106V12.5H25V22.3106L24.375 23.2481Z" fill="white"/>
</svg>
