<svg width="40" height="40" viewBox="0 0 40 40" fill="none" xmlns="http://www.w3.org/2000/svg">
<g clip-path="url(#clip0_20_176)">
<path d="M21.6667 27.5001C21.6667 27.058 21.4911 26.6341 21.1785 26.3215C20.866 26.009 20.4421 25.8334 20 25.8334H13.5C13.4084 25.8297 13.3204 25.7971 13.2485 25.7402C13.1766 25.6833 13.1246 25.605 13.1 25.5167C12.7026 23.705 12.507 21.8548 12.5167 20.0001C12.5092 18.4349 12.6487 16.8725 12.9334 15.3334C12.9523 15.2407 13.0022 15.1571 13.0749 15.0965C13.1476 15.036 13.2387 15.0019 13.3334 15.0001H37.15C37.4208 15.0145 37.6906 14.9584 37.9332 14.8373C38.1757 14.7162 38.3827 14.5342 38.5339 14.3091C38.6851 14.084 38.7752 13.8236 38.7956 13.5532C38.8159 13.2829 38.7658 13.0119 38.65 12.7667C37.2051 8.99695 34.6468 5.75637 31.3153 3.47587C27.9839 1.19537 24.0372 -0.0169673 20 5.47526e-05C14.7825 0.0949965 9.80013 2.18741 6.07931 5.84622C2.35849 9.50503 0.182641 14.4515 2.92084e-05 19.6667C-0.249971 36.6667 15.75 40.0001 19.2 40.0001C19.6421 40.0597 20.0897 39.9414 20.4444 39.671C20.7992 39.4006 21.032 39.0004 21.0917 38.5584C21.1514 38.1164 21.033 37.6687 20.7626 37.314C20.4923 36.9592 20.0921 36.7264 19.65 36.6667C18.7334 36.4001 15.25 30.9501 14.65 29.7167C14.6165 29.6554 14.5989 29.5866 14.5989 29.5167C14.5989 29.4468 14.6165 29.378 14.65 29.3167C14.6923 29.2657 14.746 29.2255 14.8069 29.1994C14.8678 29.1733 14.934 29.1621 15 29.1667H20C20.4421 29.1667 20.866 28.9911 21.1785 28.6786C21.4911 28.366 21.6667 27.9421 21.6667 27.5001ZM9.6667 25.3334C9.69007 25.3888 9.70212 25.4483 9.70212 25.5084C9.70212 25.5685 9.69007 25.628 9.6667 25.6834C9.58463 25.7726 9.47106 25.8264 9.35003 25.8334H4.70003C4.61255 25.8321 4.52751 25.8043 4.45612 25.7537C4.38472 25.7031 4.33031 25.6321 4.30003 25.5501C3.66236 23.7691 3.33538 21.8918 3.33336 20.0001C3.33156 18.4097 3.55603 16.8272 4.00003 15.3001C4.02601 15.2107 4.08115 15.1326 4.15667 15.0783C4.23218 15.0239 4.32372 14.9964 4.4167 15.0001H9.10003C9.16054 15.0006 9.22021 15.0142 9.2749 15.0401C9.32958 15.0661 9.37797 15.1036 9.4167 15.1501C9.45848 15.1938 9.48932 15.2468 9.5067 15.3047C9.52409 15.3627 9.52751 15.4239 9.5167 15.4834C9.02664 18.7528 9.07732 22.0805 9.6667 25.3334ZM19.7667 3.78339C19.8382 3.73538 19.9223 3.70974 20.0084 3.70974C20.0944 3.70974 20.1786 3.73538 20.25 3.78339C22.7528 5.65512 24.6906 8.18115 25.85 11.0834C25.8786 11.1462 25.8934 11.2144 25.8934 11.2834C25.8934 11.3524 25.8786 11.4206 25.85 11.4834C25.8104 11.5395 25.758 11.5854 25.6971 11.6173C25.6363 11.6491 25.5687 11.6661 25.5 11.6667H14.55C14.4813 11.6661 14.4138 11.6491 14.3529 11.6173C14.2921 11.5854 14.2397 11.5395 14.2 11.4834C14.1715 11.4206 14.1567 11.3524 14.1567 11.2834C14.1567 11.2144 14.1715 11.1462 14.2 11.0834C15.3356 8.17692 17.2644 5.64763 19.7667 3.78339ZM34.0667 11.0167C34.1032 11.0831 34.1223 11.1576 34.1223 11.2334C34.1223 11.3091 34.1032 11.3837 34.0667 11.4501C34.0294 11.5147 33.9761 11.5686 33.9118 11.6065C33.8476 11.6445 33.7746 11.6652 33.7 11.6667H30C29.912 11.6678 29.8258 11.641 29.754 11.5901C29.6821 11.5392 29.6282 11.4668 29.6 11.3834C28.912 9.2897 27.9118 7.31187 26.6334 5.51672C26.5803 5.44103 26.5518 5.35083 26.5518 5.25839C26.5518 5.16595 26.5803 5.07575 26.6334 5.00005C26.6949 4.93195 26.7757 4.88427 26.8651 4.86342C26.9545 4.84256 27.0481 4.84953 27.1334 4.88339C29.9773 6.23214 32.3811 8.35861 34.0667 11.0167ZM12.9 5.00005C12.9659 4.96202 13.0406 4.942 13.1167 4.942C13.1928 4.942 13.2675 4.96202 13.3334 5.00005C13.3888 5.07476 13.4188 5.16534 13.4188 5.25839C13.4188 5.35144 13.3888 5.44202 13.3334 5.51672C12.1032 7.32095 11.1483 9.29814 10.5 11.3834C10.475 11.4655 10.4242 11.5374 10.3552 11.5884C10.2861 11.6394 10.2025 11.6669 10.1167 11.6667H6.35003C6.27471 11.6688 6.20033 11.6496 6.13546 11.6112C6.07059 11.5729 6.01787 11.517 5.98336 11.4501C5.94174 11.3855 5.9196 11.3102 5.9196 11.2334C5.9196 11.1565 5.94174 11.0813 5.98336 11.0167C7.67639 8.39989 10.0739 6.31432 12.9 5.00005ZM13.4834 34.5001C13.5402 34.571 13.5711 34.6592 13.5711 34.7501C13.5711 34.8409 13.5402 34.9291 13.4834 35.0001C13.425 35.0725 13.3441 35.1234 13.2535 35.1446C13.1629 35.1657 13.0678 35.1559 12.9834 35.1167C10.4247 33.9237 8.20682 32.107 6.53336 29.8334C6.49689 29.767 6.47777 29.6925 6.47777 29.6167C6.47777 29.541 6.49689 29.4664 6.53336 29.4001C6.56549 29.33 6.61719 29.2706 6.68224 29.2292C6.74729 29.1879 6.82293 29.1661 6.90003 29.1667H10.4167C10.4999 29.1678 10.5809 29.1938 10.6492 29.2413C10.7176 29.2888 10.7701 29.3557 10.8 29.4334C11.4739 31.2302 12.3757 32.933 13.4834 34.5001Z" fill="#CFDEF3"/>
<path d="M31.2833 29.5001C32.4121 29.5034 33.5164 29.1715 34.4563 28.5464C35.3963 27.9213 36.1294 27.0313 36.5629 25.9891C36.9964 24.9469 37.1107 23.7994 36.8913 22.6922C36.6719 21.5849 36.1286 20.5678 35.3305 19.7696C34.5323 18.9714 33.5152 18.4282 32.4079 18.2088C31.3007 17.9894 30.1532 18.1037 29.111 18.5372C28.0688 18.9707 27.1787 19.7038 26.5537 20.6437C25.9286 21.5836 25.5967 22.688 25.6 23.8167C25.6 25.3241 26.1988 26.7696 27.2646 27.8355C28.3304 28.9013 29.776 29.5001 31.2833 29.5001Z" fill="#A7C4E9"/>
<path d="M22.5833 39.0834C22.5682 39.1972 22.5783 39.3128 22.6129 39.4223C22.6475 39.5317 22.7056 39.6322 22.7833 39.7167C22.8624 39.8067 22.9598 39.8785 23.0691 39.9274C23.1784 39.9763 23.297 40.0011 23.4167 40H39.15C39.2697 40.0011 39.3883 39.9763 39.4976 39.9274C39.6069 39.8785 39.7043 39.8067 39.7833 39.7167C39.861 39.6322 39.9192 39.5317 39.9538 39.4223C39.9883 39.3128 39.9984 39.1972 39.9833 39.0834C39.7529 36.9368 38.737 34.9512 37.131 33.5084C35.525 32.0656 33.4423 31.2675 31.2833 31.2675C29.1244 31.2675 27.0417 32.0656 25.4357 33.5084C23.8297 34.9512 22.8138 36.9368 22.5833 39.0834Z" fill="#A7C4E9"/>
</g>
<defs>
<clipPath id="clip0_20_176">
<rect width="40" height="40" fill="white"/>
</clipPath>
</defs>
</svg>
